Coordinates
version=1
nRows=12
nColumns=24
inDegrees=yes

Units are S.I. units (second, meters, Newtons, ...)
Angles are in degrees.

endheader
time	pelvis_tilt	pelvis_list	pelvis_rotation	pelvis_tx	pelvis_ty	pelvis_tz	hip_flexion_r	hip_adduction_r	hip_rotation_r	knee_angle_r	ankle_angle_r	subtalar_angle_r	mtp_angle_r	hip_flexion_l	hip_adduction_l	hip_rotation_l	knee_angle_l	ankle_angle_l	subtalar_angle_l	mtp_angle_l	lumbar_extension	lumbar_bending	lumbar_rotation
      6.35000000	     -7.98886319	     -4.84236788	      2.10433909	     -1.40104581	      0.00031444	     -0.29066917	     11.27496756	     10.15002806	      4.99843039	    -11.98732633	      0.81247233	     -3.79316210	     12.65924785	     26.74331101	     -7.51044105	     -0.12754042	    -63.85339108	    -14.67142195	     -6.05860803	     21.80582113	      6.47199666	      4.20442940	      1.13658674
      6.35500000	     -8.00880665	     -4.59794361	      1.92208288	     -1.39617627	      0.00071348	     -0.29004940	     10.77510879	      9.95831453	      5.24822345	    -11.68781264	      1.00792937	     -3.72190146	     12.53752387	     27.30511066	     -7.26184596	     -0.39811948	    -63.35411816	    -14.15088263	     -5.96308844	     21.94520741	      6.42412620	      3.96995818	      1.47179475
      6.36000000	     -8.04681563	     -4.36327084	      1.79195640	     -1.39130832	      0.00103908	     -0.28952212	     10.29108841	      9.75671694	      5.41800222	    -11.36235477	      1.19186634	     -3.65867802	     12.49622798	     27.88715716	     -6.99359131	     -0.61489258	    -62.79925968	    -13.68620135	     -5.86953899	     22.08864388	      6.40507995	      3.74144603	      1.73844575
      6.36500000	     -8.06651486	     -4.14280476	      1.61807242	     -1.38646214	      0.00133219	     -0.28897357	      9.79262873	      9.57258933	      5.61017042	    -11.04401123	      1.37383310	     -3.55050971	     12.48425992	     28.41833221	     -6.76385566	     -0.86575365	    -62.17784910	    -13.20122489	     -5.73696955	     22.25966716	      6.35932598	      3.53967213	      2.05743751
      6.37000000	     -8.04809946	     -3.94931578	      1.41791391	     -1.38164618	      0.00160941	     -0.28842018	      9.25836934	      9.41674980	      5.80888740	    -10.72957461	      1.54440490	     -3.40278806	     12.48253043	     28.88464380	     -6.57851399	     -1.13068314	    -61.49466802	    -12.70824806	     -5.59458048	     22.45060525	      6.26359246	      3.37398086	      2.40295935
      6.37500000	     -8.04603235	     -3.75803597	      1.26320376	     -1.37681929	      0.00180916	     -0.28794488	      8.74002081	      9.24942862	      5.96089894	    -10.40241265	      1.71929732	     -3.28897788	     12.51105377	     29.36193593	     -6.36692724	     -1.34460560	    -60.75648448	    -12.25528005	     -5.45232310	     22.62287227	      6.19501143	      3.20514563	      2.68856164
      6.38000000	     -8.03789235	     -3.57718010	      1.10396540	     -1.37200532	      0.00196069	     -0.28749471	      8.22084942	      9.08933039	      6.10326432	    -10.07920838	      1.88877901	     -3.17645202	     12.56901104	     29.81238830	     -6.16526392	     -1.54838207	    -59.95970992	    -11.81164145	     -5.29450800	     22.78802579	      6.12051913	      3.05421757	      2.97765388
      6.38500000	     -8.06035881	     -3.40620094	      0.97902154	     -1.36718645	      0.00201670	     -0.28710675	      7.73997320	      8.93160122	      6.21362503	     -9.75895216	      2.05801092	     -3.10928715	     12.63043418	     30.28844242	     -5.94914664	     -1.70457845	    -59.11350237	    -11.40140337	     -5.14548134	     22.91533643	      6.08662231	      2.90998734	      3.22025320
      6.39000000	     -8.01984602	     -3.25935779	      0.78187797	     -1.36239325	      0.00208892	     -0.28665990	      7.20166330	      8.80772668	      6.38432630	     -9.46122771	      2.21195513	     -2.98791896	     12.72801326	     30.65549378	     -5.80241142	     -1.91594471	    -58.20484438	    -10.94403651	     -4.96060379	     23.05325532	      5.96956363	      2.80011553	      3.53782924
      6.39500000	     -8.04302060	     -3.11138314	      0.65688158	     -1.35758407	      0.00203597	     -0.28631057	      6.73552528	      8.67086038	      6.49478904	     -9.16159088	      2.37442020	     -2.95088854	     12.79270791	     31.09236413	     -5.60197845	     -2.03272635	    -57.25085250	    -10.56027944	     -4.80350580	     23.13295298	      5.93555967	      2.67794751	      3.78257060
      6.40000000	     -8.04500005	     -2.97889075	      0.48640600	     -1.35279431	      0.00197929	     -0.28599681	      6.26593158	      8.54985814	      6.64773701	     -8.90227714	      2.51793921	     -2.89091920	     12.85828037	     31.46775542	     -5.43256626	     -2.16236683	    -56.22950317	    -10.15689286	     -4.62199629	     23.20227421	      5.87369614	      2.60367266	      4.06801423
      6.40500000	     -7.95331366	     -2.85512784	      0.23684360	     -1.34801550	      0.00195560	     -0.28555011	      5.69095827	      8.45166898	      6.89348434	     -8.63984919	      2.66777668	     -2.83738350	     12.94213427	     31.70203613	     -5.34252266	     -2.39610628	    -55.15783700	     -9.70423246	     -4.39951186	     23.21717068	      5.69536486	      2.53598432	      4.42040318
